<svg width="278" height="107" viewBox="0 0 278 107" fill="none" xmlns="http://www.w3.org/2000/svg">
<path d="M8.55371 107H269.446V17.3438H8.55371V107Z" fill="url(#paint0_linear)"/>
<path d="M253.236 25.8824L255.305 33.5948L263.032 35.6606L255.305 37.7264L253.236 45.4388L251.166 37.7264L243.44 35.6606L251.166 33.5948L253.236 25.8824Z" fill="#227543"/>
<path d="M196.394 25.8824L198.464 33.5948L206.19 35.6606L198.464 37.7264L196.394 45.4388L194.325 37.7264L186.599 35.6606L194.325 33.5948L196.394 25.8824Z" fill="#227543"/>
<path d="M223.849 55.0792L225.919 62.7916L233.645 64.8574L225.919 66.9232L223.849 74.6356L221.78 66.9232L214.054 64.8574L221.78 62.7916L223.849 55.0792Z" fill="#227543"/>
<path d="M139.552 25.8824L141.622 33.5948L149.348 35.6606L141.622 37.7264L139.552 45.4388L137.483 37.7264L129.757 35.6606L137.483 33.5948L139.552 25.8824Z" fill="#227543"/>
<path d="M167.007 55.0792L169.077 62.7916L176.803 64.8574L169.077 66.9232L167.007 74.6356L164.938 66.9232L157.212 64.8574L164.938 62.7916L167.007 55.0792Z" fill="#227543"/>
<path d="M82.7106 25.8824L84.7801 33.5948L92.5061 35.6606L84.7801 37.7264L82.7106 45.4388L80.6411 37.7264L72.915 35.6606L80.6411 33.5948L82.7106 25.8824Z" fill="#227543"/>
<path d="M110.165 55.0792L112.235 62.7916L119.961 64.8574L112.235 66.9232L110.165 74.6356L108.027 66.9232L100.301 64.8574L108.027 62.7916L110.165 55.0792Z" fill="#227543"/>
<path d="M25.8688 45.4388L23.7303 37.7264L16.0732 35.6606L23.7303 33.5948L25.8688 25.8824L27.9383 33.5948L35.6643 35.6606L27.9383 37.7264L25.8688 45.4388Z" fill="#227543"/>
<path d="M53.2545 55.0792L55.393 62.7916L63.119 64.8574L55.393 66.9232L53.2545 74.6356L51.185 66.9232L43.459 64.8574L51.185 62.7916L53.2545 55.0792Z" fill="#227543"/>
<path d="M253.236 83.8629L255.305 91.5753L263.032 93.6411L255.305 95.7069L253.236 103.419L251.166 95.7069L243.44 93.6411L251.166 91.5753L253.236 83.8629Z" fill="#227543"/>
<path d="M196.394 83.8629L198.464 91.5753L206.19 93.6411L198.464 95.7069L196.394 103.419L194.325 95.7069L186.599 93.6411L194.325 91.5753L196.394 83.8629Z" fill="#227543"/>
<path d="M139.552 83.8629L141.622 91.5753L149.348 93.6411L141.622 95.7069L139.552 103.419L137.483 95.7069L129.757 93.6411L137.483 91.5753L139.552 83.8629Z" fill="#227543"/>
<path d="M82.7106 83.8629L84.7801 91.5753L92.5061 93.6411L84.7801 95.7069L82.7106 103.419L80.6411 95.7069L72.915 93.6411L80.6411 91.5753L82.7106 83.8629Z" fill="#227543"/>
<path d="M25.8688 83.8629L27.9383 91.5753L35.6643 93.6411L27.9383 95.7069L25.8688 103.419L23.7303 95.7069L16.0732 93.6411L23.7303 91.5753L25.8688 83.8629Z" fill="#227543"/>
<path d="M0 21.6131H278V6.11949C278 2.88305 275.379 0.266357 272.136 0.266357H5.86352C2.62134 0.266357 0 2.88305 0 6.11949V21.6131Z" fill="#007938"/>
<path d="M153.97 0.266357H124.031V21.6131H153.97V0.266357Z" fill="#E5AE15"/>
<path d="M153.97 21.613H124.031V107H153.97V21.613Z" fill="url(#paint1_linear)"/>
<defs>
<linearGradient id="paint0_linear" x1="139.006" y1="106.997" x2="139.006" y2="17.3368" gradientUnits="userSpaceOnUse">
<stop offset="0.0025835" stop-color="#007938"/>
<stop offset="1" stop-color="#009945"/>
</linearGradient>
<linearGradient id="paint1_linear" x1="139.007" y1="106.997" x2="139.007" y2="21.6063" gradientUnits="userSpaceOnUse">
<stop stop-color="#FB9F3B"/>
<stop offset="1" stop-color="#FCC921"/>
</linearGradient>
</defs>
</svg>
