<svg width="289" height="146" viewBox="0 0 289 146" fill="none" xmlns="http://www.w3.org/2000/svg">
<path d="M93.4995 146H280.5V23.6177H93.4995V146Z" fill="url(#paint0_linear)"/>
<path d="M6.375 146H93.5V23.6177H6.375V146Z" fill="url(#paint1_linear)"/>
<path d="M93.5171 23.6187L289.017 23.6187L289.017 0.00106812L93.5171 0.00106811L93.5171 23.6187Z" fill="#009945"/>
<path d="M0.00391388 23.6187L93.5039 23.6187L93.5039 0.00106812L0.00391388 0.00106811L0.00391388 23.6187Z" fill="#007938"/>
<path opacity="0.4" d="M261.375 146H267.75V23.6177H261.375V146Z" fill="url(#paint2_linear)"/>
<path opacity="0.4" d="M242.25 146H248.625V23.6177H242.25V146Z" fill="url(#paint3_linear)"/>
<path opacity="0.4" d="M223.125 146H229.5V23.6177H223.125V146Z" fill="url(#paint4_linear)"/>
<path opacity="0.4" d="M204 146H210.375V23.6177H204V146Z" fill="url(#paint5_linear)"/>
<path opacity="0.4" d="M184.875 146H191.25V23.6177H184.875V146Z" fill="url(#paint6_linear)"/>
<path opacity="0.4" d="M165.75 146H172.125V23.6177H165.75V146Z" fill="url(#paint7_linear)"/>
<path opacity="0.4" d="M146.625 146H153V23.6177H146.625V146Z" fill="url(#paint8_linear)"/>
<path opacity="0.4" d="M127.5 146H133.875V23.6177H127.5V146Z" fill="url(#paint9_linear)"/>
<path opacity="0.4" d="M108.375 146H114.75V23.6177H108.375V146Z" fill="url(#paint10_linear)"/>
<path opacity="0.4" d="M74.375 146H80.75V23.6177H74.375V146Z" fill="url(#paint11_linear)"/>
<path opacity="0.4" d="M55.25 146H61.625V23.6177H55.25V146Z" fill="url(#paint12_linear)"/>
<path opacity="0.4" d="M36.125 146H42.5V23.6177H36.125V146Z" fill="url(#paint13_linear)"/>
<path opacity="0.4" d="M17 146H23.375V23.6177H17V146Z" fill="url(#paint14_linear)"/>
<path d="M179.989 80.5381L240.947 91.4079L246.856 57.5771L185.898 46.7074L179.989 80.5381Z" fill="#323444"/>
<path d="M235.875 82.2116C236.149 82.2116 236.355 82.0731 236.492 81.796C236.629 81.519 239.097 75.0778 237.246 70.9915C236.629 69.6063 235.532 68.5674 234.024 68.0826C230.391 66.8359 228.06 68.2211 226.758 69.6063C225.661 70.7144 225.044 71.9611 224.839 72.5152C224.222 72.7922 223.056 73.1385 222.371 72.6537C221.96 72.3767 221.685 71.7533 221.685 70.7837C221.685 68.9137 220.794 59.9791 218.395 59.5636C217.093 59.3558 216.476 61.2951 216.202 61.9877C215.516 63.9962 214.899 66.8359 214.214 69.6063C213.391 73.2771 212.089 78.7486 211.198 79.4412C211.129 79.3719 211.06 79.3027 210.992 79.0949C210.101 77.2941 210.443 75.0778 210.718 73.2771C210.923 71.6841 211.129 70.5067 210.375 69.9526C209.689 69.4678 208.798 69.8141 208.044 70.2296C205.919 71.2685 205.919 71.2685 205.302 70.0218C204.823 69.1215 204.068 67.7363 202.423 66.074C198.516 62.1262 194.54 64.8273 193.375 65.797L189.468 63.8577C189.125 63.7192 188.782 63.8577 188.645 64.1347C188.508 64.481 188.645 64.8273 188.919 64.9659L193.169 67.1129C193.443 67.2514 193.718 67.1822 193.923 66.9744C194.06 66.8359 197.762 63.1651 201.532 66.9744C203.04 68.4981 203.726 69.7448 204.206 70.6452C205.234 72.5152 205.851 72.7922 208.661 71.407C209.484 70.9915 209.689 71.0607 209.758 71.0607C209.827 71.2685 209.689 72.3767 209.552 73.1385C209.278 75.0086 208.867 77.5712 209.964 79.7182C210.375 80.5494 210.855 80.8957 211.403 80.8264C212.911 80.6186 213.734 77.5712 215.516 69.9526C216.133 67.2514 216.818 64.4118 217.435 62.4032C217.915 60.9488 218.258 60.8103 218.258 60.8103C219.081 61.1566 220.452 67.1129 220.452 70.7837C220.452 72.2382 220.863 73.2078 221.685 73.6926C223.193 74.6623 225.318 73.6234 225.593 73.4848C225.73 73.4156 225.867 73.2771 225.935 73.1385C226.004 72.9308 227.923 67.3207 233.613 69.26C234.778 69.6755 235.601 70.3681 236.081 71.4763C237.726 75.0778 235.327 81.242 235.327 81.3112C235.189 81.6575 235.327 82.0038 235.669 82.1423C235.738 82.2116 235.806 82.2116 235.875 82.2116Z" fill="white"/>
<defs>
<linearGradient id="paint0_linear" x1="187.008" y1="147.08" x2="187.008" y2="24.0828" gradientUnits="userSpaceOnUse">
<stop stop-color="#F7931E"/>
<stop offset="1" stop-color="#F1B324"/>
</linearGradient>
<linearGradient id="paint1_linear" x1="49.9399" y1="144.933" x2="49.9399" y2="24.6023" gradientUnits="userSpaceOnUse">
<stop stop-color="#F17B24"/>
<stop offset="1" stop-color="#F7931E"/>
</linearGradient>
<linearGradient id="paint2_linear" x1="265.018" y1="144.587" x2="264.104" y2="23.9704" gradientUnits="userSpaceOnUse">
<stop stop-color="#C1272D"/>
<stop offset="1" stop-color="#ED1C24"/>
</linearGradient>
<linearGradient id="paint3_linear" x1="245.893" y1="144.587" x2="244.978" y2="23.9704" gradientUnits="userSpaceOnUse">
<stop stop-color="#C1272D"/>
<stop offset="1" stop-color="#ED1C24"/>
</linearGradient>
<linearGradient id="paint4_linear" x1="226.767" y1="144.587" x2="225.852" y2="23.9704" gradientUnits="userSpaceOnUse">
<stop stop-color="#C1272D"/>
<stop offset="1" stop-color="#ED1C24"/>
</linearGradient>
<linearGradient id="paint5_linear" x1="207.641" y1="144.587" x2="206.726" y2="23.9704" gradientUnits="userSpaceOnUse">
<stop stop-color="#C1272D"/>
<stop offset="1" stop-color="#ED1C24"/>
</linearGradient>
<linearGradient id="paint6_linear" x1="188.515" y1="144.587" x2="187.6" y2="23.9704" gradientUnits="userSpaceOnUse">
<stop stop-color="#C1272D"/>
<stop offset="1" stop-color="#ED1C24"/>
</linearGradient>
<linearGradient id="paint7_linear" x1="169.389" y1="144.587" x2="168.475" y2="23.9704" gradientUnits="userSpaceOnUse">
<stop stop-color="#C1272D"/>
<stop offset="1" stop-color="#ED1C24"/>
</linearGradient>
<linearGradient id="paint8_linear" x1="150.263" y1="144.587" x2="149.349" y2="23.9704" gradientUnits="userSpaceOnUse">
<stop stop-color="#C1272D"/>
<stop offset="1" stop-color="#ED1C24"/>
</linearGradient>
<linearGradient id="paint9_linear" x1="131.137" y1="144.587" x2="130.223" y2="23.9704" gradientUnits="userSpaceOnUse">
<stop stop-color="#C1272D"/>
<stop offset="1" stop-color="#ED1C24"/>
</linearGradient>
<linearGradient id="paint10_linear" x1="112.011" y1="144.587" x2="111.097" y2="23.9704" gradientUnits="userSpaceOnUse">
<stop stop-color="#C1272D"/>
<stop offset="1" stop-color="#ED1C24"/>
</linearGradient>
<linearGradient id="paint11_linear" x1="78.0099" y1="144.587" x2="77.0955" y2="23.9704" gradientUnits="userSpaceOnUse">
<stop stop-color="#C1272D"/>
<stop offset="1" stop-color="#ED1C24"/>
</linearGradient>
<linearGradient id="paint12_linear" x1="58.884" y1="144.587" x2="57.9696" y2="23.9704" gradientUnits="userSpaceOnUse">
<stop stop-color="#C1272D"/>
<stop offset="1" stop-color="#ED1C24"/>
</linearGradient>
<linearGradient id="paint13_linear" x1="39.7583" y1="144.587" x2="38.8436" y2="23.9704" gradientUnits="userSpaceOnUse">
<stop stop-color="#C1272D"/>
<stop offset="1" stop-color="#ED1C24"/>
</linearGradient>
<linearGradient id="paint14_linear" x1="20.6324" y1="144.587" x2="19.718" y2="23.9704" gradientUnits="userSpaceOnUse">
<stop stop-color="#C1272D"/>
<stop offset="1" stop-color="#ED1C24"/>
</linearGradient>
</defs>
</svg>
